<svg xmlns="http://www.w3.org/2000/svg" viewBox="0 0 64 64">
  <defs>
    <radialGradient id="wax" cx="36%" cy="28%" r="75%">
      <stop offset="0" stop-color="#a54a60"/>
      <stop offset=".55" stop-color="#7c263b"/>
      <stop offset="1" stop-color="#4b1825"/>
    </radialGradient>
  </defs>
  <rect width="64" height="64" rx="16" fill="#f4ece2"/>
  <path d="M32 9c4 2 7 1 11 4 3 3 3 7 6 10 2 4 6 6 6 11 0 4-4 7-5 11-2 4-1 8-5 11-3 2-8 0-12 1-4 0-8 3-12 1-4-2-4-7-7-10-3-3-7-5-7-10 0-4 4-7 5-11 2-4 1-8 5-11 3-3 8-1 12-3 1 0 2-2 3-4Z" fill="url(#wax)"/>
  <circle cx="32" cy="33" r="15" fill="none" stroke="#d8b77e" stroke-width="1.3" opacity=".8"/>
  <text x="32" y="41" text-anchor="middle" fill="#f0d39e" font-family="serif" font-size="23">冬</text>
</svg>
